<?xml version="1.0" standalone="no"?>
<!DOCTYPE svg PUBLIC "-//W3C//DTD SVG 20010904//EN"
 "http://www.w3.org/TR/2001/REC-SVG-20010904/DTD/svg10.dtd">
<svg version="1.0" xmlns="http://www.w3.org/2000/svg"
 width="858.000000pt" height="858.000000pt" viewBox="0 0 858.000000 858.000000"
 preserveAspectRatio="xMidYMid meet">
<metadata>
Created by potrace 1.11, written by Peter Selinger 2001-2013
</metadata>
<g transform="translate(0.000000,858.000000) scale(0.100000,-0.100000)"
fill="#000000" stroke="none">
<path d="M4230 8563 c-91 -19 -189 -51 -220 -72 -14 -10 -36 -22 -50 -26 -23
-6 -118 -65 -146 -90 -31 -27 -55 -45 -59 -45 -5 0 -113 -111 -154 -158 -13
-15 -28 -37 -34 -49 -6 -13 -14 -23 -19 -23 -4 0 -8 -6 -8 -14 0 -7 -6 -18
-13 -24 -13 -11 -61 -103 -90 -172 -8 -19 -20 -48 -27 -65 -15 -36 -39 -125
-46 -174 -3 -20 -8 -39 -10 -42 -7 -12 -17 -152 -16 -229 0 -63 5 -116 16
-197 1 -7 5 -16 9 -19 4 -4 7 -20 7 -35 0 -15 10 -58 21 -95 12 -38 20 -69 18
-69 -1 0 3 -9 9 -20 23 -45 33 -217 18 -315 -8 -51 -56 -202 -66 -210 -4 -3
-15 -21 -25 -40 -61 -120 -204 -245 -345 -300 -30 -12 -59 -23 -65 -24 -5 -1
-27 -10 -49 -19 -21 -9 -40 -17 -41 -17 -7 0 -162 -72 -185 -86 -14 -8 -44
-24 -67 -35 -24 -11 -43 -23 -43 -27 0 -4 -12 -13 -27 -19 -32 -13 -79 -42
-102 -61 -9 -8 -41 -32 -71 -54 -83 -60 -290 -248 -290 -263 0 -2 -16 -21 -36
-42 -46 -48 -160 -201 -203 -273 -75 -122 -113 -194 -155 -295 -20 -49 -41
-99 -46 -110 -25 -60 -78 -255 -94 -340 -2 -16 -7 -40 -10 -52 -2 -12 -8 -50
-11 -85 -4 -35 -9 -76 -11 -93 -5 -41 -5 -301 0 -345 2 -19 7 -60 10 -91 4
-31 9 -67 12 -80 3 -13 7 -37 10 -54 2 -16 15 -73 29 -125 14 -52 27 -104 30
-115 3 -11 41 -126 85 -255 45 -129 92 -269 106 -310 14 -41 28 -82 32 -90 3
-8 6 -17 7 -20 1 -3 4 -12 8 -20 3 -8 24 -69 46 -135 22 -66 74 -219 116 -340
42 -121 92 -267 111 -325 20 -58 38 -112 41 -120 3 -8 7 -19 9 -25 1 -5 18
-54 37 -107 20 -54 33 -98 30 -98 -3 0 -1 -6 5 -12 20 -25 8 -149 -22 -215
-25 -54 -109 -153 -131 -153 -4 0 -21 -6 -38 -14 -128 -59 -263 -32 -364 72
-29 29 -53 57 -53 61 0 5 -10 30 -22 57 -12 27 -22 51 -23 54 0 3 -3 10 -6 15
-4 6 -21 37 -39 69 -39 71 -38 70 -115 150 -33 34 -82 76 -110 94 -27 17 -54
35 -60 39 -31 25 -186 80 -250 89 -96 15 -284 6 -324 -15 -9 -5 -33 -11 -54
-15 -20 -4 -37 -12 -37 -18 0 -6 -3 -8 -7 -5 -3 4 -31 -7 -62 -25 -302 -169
-454 -538 -372 -900 21 -92 58 -188 72 -188 5 0 9 -7 9 -15 0 -14 19 -54 56
-116 15 -26 56 -80 77 -101 9 -10 15 -18 13 -18 -3 0 21 -26 53 -57 60 -62
140 -133 147 -133 2 0 28 -16 56 -35 102 -70 270 -139 408 -166 30 -5 66 -13
80 -15 62 -13 336 -4 360 11 4 3 25 7 46 11 51 8 196 53 212 66 6 6 12 7 12 2
0 -5 4 -4 8 2 7 10 78 46 98 50 10 2 38 18 139 83 119 76 272 217 356 328 24
32 46 60 49 63 12 11 90 142 90 151 0 5 5 9 10 9 6 0 9 3 8 8 -1 4 11 34 26
67 55 116 112 293 121 375 2 14 6 52 10 85 13 104 7 368 -9 394 -2 3 -7 22
-10 41 -3 19 -10 50 -15 68 -5 18 -10 35 -10 37 -1 3 -1 6 -2 8 0 1 -2 9 -4
17 -1 8 -17 60 -34 115 -17 54 -31 111 -31 125 -1 14 -7 42 -14 63 -8 20 -10
39 -6 42 4 2 4 24 0 47 -8 40 -5 227 4 293 9 63 17 111 22 125 3 8 8 26 11 40
20 109 99 285 189 422 70 106 269 317 307 325 4 1 22 14 40 28 54 43 67 51
177 106 84 42 268 105 333 114 122 16 160 19 252 18 86 0 190 -8 190 -13 0 -1
19 -4 90 -13 11 -1 22 -4 25 -7 3 -3 32 -13 65 -22 81 -22 158 -51 167 -63 4
-5 8 -6 8 -1 0 5 7 3 15 -4 8 -7 15 -9 15 -6 0 4 12 -1 28 -11 15 -11 48 -30
75 -44 26 -13 47 -27 47 -31 0 -5 6 -8 13 -8 7 0 22 -8 33 -17 10 -10 38 -31
62 -47 90 -61 280 -264 339 -361 51 -84 105 -191 127 -250 39 -104 75 -170
104 -188 6 -4 12 -13 12 -18 0 -14 41 -48 58 -49 6 0 12 -4 12 -9 0 -10 115
-63 145 -67 11 -1 38 -6 60 -11 79 -17 203 -1 295 39 130 56 300 157 300 178
0 6 3 9 8 8 14 -5 143 120 180 173 9 13 23 31 33 39 9 8 19 25 23 38 4 12 12
22 17 22 5 0 9 6 9 14 0 8 4 16 8 18 11 4 106 196 110 222 2 10 8 30 14 45 14
32 12 25 26 91 7 30 15 66 18 80 12 45 13 324 3 370 -6 25 -12 54 -15 65 -13
67 -18 86 -36 140 -10 33 -22 80 -26 105 -7 49 -7 190 1 230 30 165 99 293
222 413 78 75 112 103 121 99 4 -2 10 0 13 5 11 17 75 50 141 73 36 13 70 27
76 32 7 5 20 10 30 13 11 2 63 24 117 49 53 25 97 42 97 38 0 -4 5 1 11 11 5
9 15 17 21 17 12 0 72 36 167 99 29 20 60 41 69 46 9 6 25 19 37 30 12 11 37
31 56 45 35 26 234 222 279 275 74 87 188 254 236 345 16 30 33 58 37 61 5 3
9 9 8 12 0 6 23 61 64 152 39 86 112 330 130 430 2 17 7 41 10 55 3 14 8 41
10 60 2 19 7 64 11 100 8 73 9 314 1 405 -7 76 -18 158 -23 166 -2 4 -6 24 -9
46 -7 59 -160 495 -189 539 -69 106 -173 222 -255 284 -18 14 -38 30 -45 35
-19 16 -49 34 -73 45 -13 5 -23 14 -23 20 0 5 -4 10 -10 10 -5 0 -42 16 -81
35 -40 19 -78 35 -86 35 -7 0 -13 4 -13 8 0 5 -6 9 -12 9 -7 0 -44 9 -83 21
-102 30 -173 42 -264 47 -44 2 -84 6 -89 9 -5 3 -12 3 -15 -1 -4 -3 -39 -8
-79 -10 -39 -2 -89 -8 -110 -14 -22 -5 -51 -12 -66 -14 -60 -10 -143 -35 -162
-50 -8 -6 -35 -22 -59 -34 -25 -13 -69 -47 -98 -78 -92 -94 -135 -207 -128
-331 4 -59 31 -170 44 -182 3 -3 21 -35 40 -72 18 -38 38 -68 42 -68 5 0 9 -7
9 -15 0 -19 177 -195 215 -215 17 -8 32 -17 35 -20 12 -14 99 -58 145 -74 28
-10 57 -20 65 -23 59 -23 300 -49 300 -33 0 3 17 6 38 7 58 3 92 9 157 28 33
9 65 18 72 19 7 1 15 4 17 7 3 3 40 3 83 1 103 -4 103 -4 103 -15 0 -6 3 -8 6
-4 9 8 101 -41 127 -68 58 -61 67 -75 87 -136 44 -128 7 -277 -90 -371 -27
-26 -61 -53 -77 -61 -32 -17 -215 -77 -253 -83 -14 -3 -48 -9 -76 -15 -28 -5
-66 -11 -85 -14 -19 -2 -56 -7 -84 -10 -58 -9 -365 -14 -379 -6 -5 2 -30 5
-55 7 -25 1 -46 3 -46 4 0 2 -9 4 -20 5 -79 10 -140 21 -140 25 0 1 -11 3 -25
5 -14 2 -32 5 -40 7 -8 3 -35 10 -60 17 -63 17 -159 50 -197 67 -18 8 -51 21
-74 30 -23 8 -48 19 -56 25 -7 6 -13 8 -13 4 0 -5 -8 -1 -17 7 -10 8 -36 23
-58 33 -22 10 -71 37 -108 61 -37 24 -71 44 -75 44 -4 0 -23 15 -42 33 -19 17
-35 30 -35 27 -2 -5 -51 32 -114 85 -56 47 -281 276 -281 286 0 4 -12 20 -27
34 -15 14 -25 25 -21 25 4 0 -4 12 -17 26 -14 15 -25 33 -25 40 0 8 -4 14 -9
14 -5 0 -22 21 -37 48 -16 26 -37 61 -46 77 -10 17 -30 55 -45 85 -14 30 -32
62 -38 70 -6 8 -34 74 -60 145 -89 238 -156 336 -310 454 -80 61 -211 127
-292 146 -10 2 -36 9 -58 15 -63 17 -290 19 -365 3z m715 -2587 c45 -10 137
-47 167 -68 14 -10 30 -18 36 -18 5 0 23 -13 40 -30 18 -16 36 -30 42 -30 5 0
10 -3 10 -7 0 -5 15 -24 33 -43 61 -65 119 -178 143 -275 19 -82 3 -285 -26
-320 -7 -8 -10 -15 -6 -15 9 0 -37 -88 -74 -143 -29 -43 -138 -148 -163 -156
-7 -2 -23 -12 -36 -22 -41 -32 -203 -79 -278 -80 -37 0 -70 0 -73 1 -3 0 -22
3 -43 5 -70 7 -203 62 -262 108 -48 37 -121 114 -153 161 -26 38 -77 165 -87
216 -2 8 -4 15 -5 15 0 0 -2 34 -4 75 -2 82 13 192 33 228 6 12 9 22 6 22 -8
0 45 101 61 118 8 7 14 18 14 23 0 10 125 139 135 139 3 0 23 11 44 25 21 14
76 39 122 55 75 26 95 28 189 26 58 -2 119 -6 135 -10z"/>
</g>
</svg>
